<?xml version="1.0" encoding="UTF-8"?><svg version="1.1" width="36px" height="42px" viewBox="0 0 36.0 42.0" xmlns="http://www.w3.org/2000/svg" xmlns:xlink="http://www.w3.org/1999/xlink"><defs><linearGradient id="i0" x1="-2.603486px" y1="38.86594px" x2="17.979834px" y2="-7.75836px" gradientUnits="userSpaceOnUse"><stop stop-color="#0CFFF0" offset="0%"></stop><stop stop-color="#0CFFA7" offset="100%"></stop></linearGradient><clipPath id="i1"><path d="M28.262,20.917 L13.033,29.708 L17.994,38.3 L33.222,29.508 L28.262,20.917 Z M34.923,29.4058 L34.6441,30.4462 L34.572,30.322 L34.483,30.167 L34.367,29.967 L34.352,29.941 L34.2633,29.7866 L34.654,29.56 L34.923,29.4058 Z M11.443,11.214 L1.523,11.214 L1.523,28.799 L11.443,28.799 L11.443,11.214 Z M12.966,12.005 L12.966,27.989 L26.808,19.997 L12.966,12.005 Z M18.002,1.7 L13.042,10.291 L28.27,19.083 L33.231,10.492 L18.002,1.7 Z M18.1047,0 L34.6526,9.5539 L34.9313,10.5942 L29.496,20.007 L34.923,29.4058 L34.654,29.56 L34.2633,29.7866 L34.352,29.941 L34.367,29.967 L34.483,30.167 L34.572,30.322 L34.6441,30.4462 L18.0963,40 L17.0559,39.7213 L11.629,30.322 L0.761564,30.3223 L0,29.5608 L0,10.4529 L0.761564,9.6914 L11.63,9.691 L17.0644,0.27873 L18.1047,0 Z"></path></clipPath><linearGradient id="i2" x1="9.23493px" y1="44.2368px" x2="2.15274px" y2="-0.049045px" gradientUnits="userSpaceOnUse"><stop stop-color="#0CFFF0" offset="0%"></stop><stop stop-color="#0CFFA7" offset="100%"></stop></linearGradient></defs><g transform="translate(1.4210854715202004e-14 1.0)"><g transform="translate(0.7597660000000026 0.5567600000000006)"><polygon points="16.829434,0 33.658734,9.71644 33.658734,29.14934 16.829434,38.86594 0,29.14934 0,9.71644 16.829434,0 16.829434,0" stroke="url(#i0)" stroke-width="1.5" fill="none" stroke-miterlimit="10"></polygon></g><g transform=""><g clip-path="url(#i1)"><polygon points="0,0 34.9313,0 34.9313,40 0,40 0,0" stroke="none" fill="url(#i2)"></polygon></g></g></g></svg>