<svg width="174" height="42" viewBox="0 0 174 42" fill="none" xmlns="http://www.w3.org/2000/svg">
<path d="M59.2982 15.4321C58.953 14.7422 58.4224 14.1318 57.7588 13.6276C57.1222 13.1499 56.3525 12.7784 55.4767 12.5396C54.6278 12.2742 53.6723 12.1681 52.6376 12.1681H45.0742V30.744H48.1261V23.3136H52.6376C53.6723 23.3136 54.6278 23.1809 55.4767 22.9421C56.3525 22.6767 57.1222 22.3052 57.7588 21.8275C58.4224 21.3233 58.953 20.713 59.2982 20.023C59.6699 19.333 59.8288 18.5635 59.8288 17.7408C59.8288 16.9182 59.6699 16.1486 59.2982 15.4321ZM56.5119 18.8554C56.3525 19.1738 56.1139 19.4392 55.7955 19.678C55.4767 19.9434 55.0522 20.1557 54.5217 20.2884C53.9906 20.4476 53.3539 20.5272 52.6376 20.5272H48.1261V14.9545H52.6376C53.3539 14.9545 53.9906 15.0341 54.5217 15.1668C55.0522 15.326 55.4767 15.5383 55.8219 15.7771C56.1403 16.0159 56.3525 16.2813 56.5119 16.5997C56.6977 16.9447 56.7774 17.3163 56.7774 17.7408C56.7774 18.1389 56.6977 18.5104 56.5119 18.8554Z" fill="white"/>
<path d="M67.8552 16.9978C63.7422 16.9978 60.3984 20.1027 60.3984 23.924C60.3984 27.7453 63.7422 30.8501 67.8552 30.8501C71.995 30.8501 75.3388 27.7453 75.3388 23.924C75.3388 20.1027 71.995 16.9978 67.8552 16.9978ZM67.8552 28.0637C65.4405 28.0637 63.4503 26.2061 63.4503 23.924C63.4503 21.6418 65.4405 19.7842 67.8552 19.7842C70.2967 19.7842 72.287 21.6418 72.287 23.924C72.287 26.2061 70.2967 28.0637 67.8552 28.0637Z" fill="white"/>
<path d="M80.5401 30.5581V11.9822H77.4883V30.5581H80.5401Z" fill="white"/>
<path d="M97.2815 17.3162H93.9646L92.903 19.5983L89.6125 27.1083L85.4463 17.3162H82.1289L88.0468 30.16L85.4194 35.892H88.7367L97.149 17.5815L97.2815 17.3162Z" fill="white"/>
<path d="M111.609 30.5581L111.582 23.34C111.609 22.0131 111.396 20.4475 110.414 19.0675C109.937 18.4041 109.22 17.7938 108.371 17.3957C107.549 16.9976 106.567 16.865 105.718 16.8915C105.293 16.918 104.842 16.9711 104.417 17.0773C103.966 17.21 103.542 17.3692 103.17 17.5815C102.692 17.8734 102.268 18.2184 101.923 18.6164V11.9822H98.8711V30.5581H101.923V23.8177C101.949 23.6584 101.949 23.4992 101.976 23.34C102.029 22.7562 102.162 22.2254 102.374 21.7212C102.613 21.2436 102.905 20.7925 103.276 20.4475C103.621 20.129 104.019 19.9167 104.444 19.784C104.842 19.6779 105.266 19.6248 105.718 19.6779C106.62 19.7575 107.257 20.0759 107.761 20.7129C108 21.0313 108.212 21.4293 108.345 21.8805C108.477 22.3316 108.53 22.7827 108.53 23.34V30.5581H111.609Z" fill="white"/>
<path d="M127.827 25.0651H128.357C128.437 24.6936 128.463 24.322 128.463 23.924C128.463 20.1027 125.12 16.9978 120.98 16.9978C116.867 16.9978 113.523 20.1027 113.523 23.924C113.523 27.7453 117.106 30.8501 121.484 30.8501C124.218 30.8501 126.685 29.656 128.145 27.7453L125.306 26.5511C124.403 27.4799 122.997 28.0637 121.484 28.0637C119.255 28.0637 117.371 26.7899 116.761 25.0651H127.827ZM116.761 22.7829C117.292 21.058 118.99 19.7842 120.98 19.7842C122.997 19.7842 124.695 21.058 125.226 22.7829H116.761Z" fill="white"/>
<path d="M142.426 11.9822V19.1206C141.842 18.5368 141.125 18.0061 140.329 17.6346C139.453 17.2365 138.472 17.0242 137.463 16.9976C136.481 16.9976 135.473 17.1569 134.544 17.5018C133.616 17.8734 132.793 18.4041 132.103 19.041C130.75 20.3413 129.98 22.1458 130.007 23.9238C129.98 25.7018 130.75 27.5063 132.103 28.8066C132.793 29.47 133.616 30.0007 134.544 30.3457C135.473 30.7173 136.481 30.8765 137.463 30.8499C138.472 30.8234 139.453 30.6111 140.329 30.2131C141.125 29.8415 141.842 29.3373 142.426 28.727V30.558H145.477V11.9822H142.426ZM140.807 27.0552C140.329 27.4267 139.772 27.692 139.215 27.8512C138.631 28.0105 138.047 28.0901 137.463 28.0636C136.296 28.0105 135.181 27.5859 134.359 26.8163C133.536 26.0733 133.058 25.0118 133.058 23.9238C133.058 22.8358 133.536 21.7743 134.359 21.0313C135.181 20.2617 136.296 19.8371 137.463 19.784C138.047 19.7575 138.631 19.8371 139.215 19.9963C139.772 20.1555 140.329 20.4475 140.807 20.819C141.789 21.5355 142.426 22.7031 142.426 23.9238C142.426 25.1445 141.789 26.3121 140.807 27.0552Z" fill="white"/>
<path d="M156.568 16.9713C156.117 16.9182 155.666 16.8917 155.242 16.8917C154.366 16.9448 153.464 17.1836 152.72 17.6348C152.137 17.9532 151.686 18.4043 151.341 18.882V17.2898H148.289V30.5583H151.341V23.8444C151.341 23.6852 151.367 23.4994 151.394 23.3402C151.42 22.7564 151.553 22.1991 151.765 21.6949C152.004 21.1907 152.322 20.7131 152.694 20.3946C153.092 20.0496 153.517 19.8639 153.941 19.7577C154.366 19.6515 154.764 19.625 155.242 19.6781C155.693 19.7046 156.064 19.8108 156.382 19.9965C156.489 20.0496 156.568 20.1027 156.674 20.1557L157.364 17.1836C157.099 17.104 156.834 17.0244 156.568 16.9713Z" fill="white"/>
<path d="M170.127 17.2897V19.1208C169.543 18.537 168.827 18.0062 168.03 17.6347C167.155 17.2367 166.173 17.0244 165.164 16.9978C164.183 16.9978 163.174 17.1571 162.246 17.502C161.316 17.8736 160.494 18.4043 159.804 19.0412C158.45 20.3415 157.681 22.146 157.708 23.924C157.681 25.7019 158.45 27.5065 159.804 28.8068C160.494 29.4702 161.316 30.0009 162.246 30.3459C163.174 30.6909 164.183 30.8767 165.164 30.8501C166.173 30.8236 167.155 30.6113 168.03 30.2132C168.827 29.8417 169.543 29.3375 170.127 28.7272V30.5582H173.179V17.2897H170.127ZM168.508 27.0553C168.03 27.4269 167.473 27.6922 166.916 27.8514C166.332 28.0107 165.748 28.0903 165.164 28.0637C163.997 28.0107 162.882 27.5861 162.06 26.8165C161.237 26.0735 160.76 25.012 160.76 23.924C160.76 22.836 161.237 21.7745 162.06 21.0315C162.882 20.2619 163.997 19.8373 165.164 19.7842C165.748 19.7577 166.332 19.8373 166.916 19.9965C167.473 20.1557 168.03 20.4476 168.508 20.8191C169.49 21.5357 170.127 22.7033 170.127 23.924C170.127 25.1447 169.49 26.3123 168.508 27.0553Z" fill="white"/>
<path d="M17.5892 1.55676L34.4185 11.2732V30.7061L17.5892 40.4227L0.759766 30.7061V11.2732L17.5892 1.55676Z" stroke="url(#paint0_linear_1551_1023)" stroke-width="1.5"/>
<path d="M28.6173 21.0073L27.9578 20.6265V21.3881L28.6173 21.0073ZM34.2718 11.2134L34.9313 11.5942L34.6526 10.5539L34.2718 11.2134ZM17.7239 1.65951L18.1047 1L17.0644 1.27873L17.7239 1.65951ZM12.0697 11.4529V12.2145L12.7292 11.8337L12.0697 11.4529ZM0.761564 11.4529V10.6914L0 11.4529H0.761564ZM0.761564 30.5608H0L0.761564 31.3223V30.5608ZM12.0692 30.5608L12.7287 30.18L12.0692 29.7992V30.5608ZM17.7156 40.3405L17.0559 40.7213L18.0963 41L17.7156 40.3405ZM34.2633 30.7866L34.6441 31.4462L34.923 30.4058L34.2633 30.7866ZM12.205 11.6869L12.5858 11.0274L11.4434 11.6869H12.205ZM12.205 30.3083H11.4434L12.5858 30.9679L12.205 30.3083ZM28.3316 20.9976L28.7124 21.6571V20.338L28.3316 20.9976ZM29.2769 21.3881L34.9313 11.5942L33.6122 10.8327L27.9578 20.6265L29.2769 21.3881ZM34.6526 10.5539L18.1047 1L17.3431 2.31903L33.891 11.873L34.6526 10.5539ZM17.0644 1.27873L11.4102 11.0721L12.7292 11.8337L18.3834 2.0403L17.0644 1.27873ZM0.761564 12.2145H12.0697V10.6914H0.761564V12.2145ZM1.52313 30.5608V11.4529H0V30.5608H1.52313ZM12.0692 29.7992H0.761564V31.3223H12.0692V29.7992ZM18.375 39.9597L12.7287 30.18L11.4096 30.9416L17.0559 40.7213L18.375 39.9597ZM33.8826 30.1271L17.3348 39.681L18.0963 41L34.6441 31.4462L33.8826 30.1271ZM27.9578 21.3881L33.6039 31.1674L34.923 30.4058L29.2769 20.6265L27.9578 21.3881ZM11.4434 11.6869V30.3083H12.9665V11.6869H11.4434ZM12.5858 30.9679L28.7124 21.6571L27.9508 20.338L11.8242 29.6488L12.5858 30.9679ZM11.8242 12.3464L27.9508 21.6571L28.7124 20.338L12.5858 11.0274L11.8242 12.3464Z" fill="url(#paint1_linear_1551_1023)"/>
<defs>
<linearGradient id="paint0_linear_1551_1023" x1="-1.84372" y1="40.4227" x2="18.7396" y2="-6.2016" gradientUnits="userSpaceOnUse">
<stop stop-color="#0CFFF0"/>
<stop offset="1" stop-color="#0CFFA7"/>
</linearGradient>
<linearGradient id="paint1_linear_1551_1023" x1="9.23493" y1="45.2368" x2="2.15274" y2="0.950955" gradientUnits="userSpaceOnUse">
<stop stop-color="#0CFFF0"/>
<stop offset="1" stop-color="#0CFFA7"/>
</linearGradient>
</defs>
</svg>
